<?xml version="1.0" standalone="no"?>
<!DOCTYPE svg PUBLIC "-//W3C//DTD SVG 20010904//EN"
 "http://www.w3.org/TR/2001/REC-SVG-20010904/DTD/svg10.dtd">
<svg version="1.0" xmlns="http://www.w3.org/2000/svg"
 width="1561.000000pt" height="1561.000000pt" viewBox="0 0 1561.000000 1561.000000"
 preserveAspectRatio="xMidYMid meet">
<metadata>
Created by potrace 1.11, written by Peter Selinger 2001-2013
</metadata>
<g transform="translate(0.000000,1561.000000) scale(0.100000,-0.100000)"
fill="#000000" stroke="none">
<path d="M0 7805 l0 -7805 7805 0 7805 0 0 7805 0 7805 -7805 0 -7805 0 0
-7805z m14632 6815 c2 -8 3 -226 3 -485 l-1 -470 -487 -3 -487 -2 0 -98 c0
-53 0 -2249 0 -4878 l0 -4782 -1465 0 -1465 1 0 4878 0 4879 -1950 0 -1950 0
0 -2925 c0 -1609 -3 -2926 -7 -2926 -5 -1 -223 -2 -485 -3 -316 -1 -479 2
-480 9 0 5 -2 224 -2 485 l-2 475 -487 3 -487 2 -1 28 c0 15 -1 234 -2 487
l-2 460 -485 1 -485 0 -1 482 c-1 266 -4 485 -7 489 -3 3 -223 6 -488 7 l-482
1 -1 1463 0 1462 -975 0 -976 0 0 483 c-1 265 2 484 6 487 4 3 3076 5 6828 5
6054 0 6820 -2 6823 -15z m-10731 -6850 c0 -19 1 -239 1 -487 l0 -453 488 0
487 0 1 -475 c0 -261 1 -481 1 -488 1 -10 96 -13 482 -12 443 0 482 -1 488
-17 3 -9 6 -229 5 -487 l-1 -471 489 0 488 0 0 -1465 0 -1465 3902 -2 3902 -3
1 -478 c0 -264 -2 -482 -5 -485 -9 -12 -13650 -8 -13651 3 -1 6 -2 225 -3 487
l-1 478 975 2 975 3 2 2890 c0 1590 2 2906 2 2925 l1 35 485 0 485 0 1 -35z"/>
</g>
</svg>
